PathFileType	4	(X/Y/Z)	C:/Users/beibeiliu/ov580/test_trc\sequence.10_training_dense_left.trc
DataRate	CameraRate	NumFrames	NumMarkers	Units	OrigDataRate	OrigDataStartFrame	OrigNumFrames
120	120	10	19	mm	120	227	302
Frame#	Time	ThumbCMC			ThumbMCP			ThumbIP			ThumbTip			IndexMCP			IndexPIP			IndexTip			MiddleMCP			MiddlePIP			MiddleTip			RingMCP			RingPIP			RingTip			PinkyMCP			PinkyPIP			PinkyTip			BackHand1			BackHand2			BackHand3	
		X0	Y0	Z0	X1	Y1	Z1	X2	Y2	Z2	X3	Y3	Z3	X4	Y4	Z4	X5	Y5	Z5	X6	Y6	Z6	X7	Y7	Z7	X8	Y8	Z8	X9	Y9	Z9	X10	Y10	Z10	X11	Y11	Z11	X12	Y12	Z12	X13	Y13	Z13	X14	Y14	Z14	X15	Y15	Z15	X16	Y16	Z16	X17	Y17	Z17	X18	Y18	Z18	
226	1.88333	-136.328	1.54655	17.7904	-122.211	16.0541	1.03563	-111.713	36.1663	-12.58	-112.185	54.1284	-26.4119	-128.86	60.8972	-6.56612	-124.627	81.7692	-14.2974	-122.101	99.788	-18.7133	-142.464	71.6335	-10.6398	-137.526	94.6235	-16.9006	-132.14	116.422	-18.1717	-157.822	68.7555	-12.9915	-154.899	87.9276	-18.5896	-146.615	107.681	-19.8972	-178.457	60.1936	-14.7295	-173.316	76.7196	-20.5404	-163.314	91.2952	-21.6095	-177.681	40.4723	7.59819	-182.096	21.4048	26.901	-156.99	25.4646	25.4402	
227	1.89167	-140.18	-0.41794	17.0509	-122.508	14.4693	1.38145	-116.407	33.2013	-12.6146	-114.574	51.3254	-26.8768	-128.526	58.7335	-6.49959	-122.759	77.442	-13.5364	-119.677	100.39	-20.3661	-140.379	70.4555	-10.8026	-134.614	93.0205	-16.2603	-131.242	114.881	-17.4474	-160.711	70.0683	-13.4053	-152.035	88.0382	-17.0946	-147.075	107.883	-20.3817	-176.985	54.3852	-14.9679	-172.904	72.1528	-19.5843	-166.186	91.2327	-22.8179	-172.748	40.0919	9.75651	-184.112	20.5888	25.1482	-152.167	27.0913	26.3048	
228	1.9	-138.93	-0.947884	17.9044	-122.493	11.4307	0.790609	-116.411	30.9229	-13.3341	-109.892	50.1194	-28.6272	-129.459	61.3811	-8.37417	-124.1	77.6623	-14.7735	-118.003	100.675	-19.2709	-141.35	70.905	-11.6831	-136.393	91.3965	-18.0458	-133.506	112.113	-20.0626	-163.503	64.7618	-13.9047	-151.321	86.3184	-17.0503	-146.437	101.967	-20.1938	-179.274	54.4616	-15.915	-169.837	76.5669	-20.6512	-157.102	89.6601	-26.8088	-176.364	38.0775	8.21013	-183.062	20.8185	26.419	-153.985	24.3839	26.4708	
229	1.90833	-139.816	0.323811	17.0148	-121.557	11.254	-0.0448683	-116.276	31.1039	-13.7212	-112.856	52.7023	-29.6868	-125.687	59.0143	-5.6107	-122.179	77.7147	-14.3193	-119.425	96.9733	-20.0123	-140.988	67.2785	-10.578	-134.009	91.9888	-17.121	-134.315	111.257	-20.4919	-161.456	67.0675	-12.4753	-154.732	86.8184	-18.1413	-147.312	107.504	-22.1455	-176.704	57.598	-15.1078	-170.826	71.3179	-18.9332	-159.461	90.9332	-27.1875	-174.491	35.6636	7.96729	-185.964	20.4812	25.6207	-156.167	28.1645	23.2642	
230	1.91667	-138.032	0.190763	17.3213	-121.771	17.0464	-0.542771	-115.544	33.7537	-14.2296	-113.701	52.4981	-29.2997	-127.554	58.5919	-5.92003	-123.779	80.2058	-15.658	-121.729	100.549	-20.878	-145.927	69.7729	-12.2288	-135.424	90.2884	-17.8766	-130.889	115.329	-21.0957	-157.734	65.3875	-12.8675	-156.701	84.8083	-18.4293	-145.301	102.778	-21.6909	-179.114	55.1149	-15.7109	-167.547	75.0924	-20.861	-157.392	90.9148	-29.996	-174.385	39.3611	7.42591	-179.565	21.47	24.3866	-155.617	27.8183	24.5049	
231	1.925	-137.847	4.87575	15.8196	-116.276	18.4755	0.148459	-113.286	36.3991	-14.0754	-109.003	51.138	-29.8424	-125.521	62.3993	-8.62326	-122.804	80.5433	-16.8429	-124.19	105.409	-24.6076	-139.71	72.4886	-13.7093	-134.478	94.1891	-21.6222	-132.093	117.526	-24.1212	-158.956	68.4064	-15.4566	-156.93	87.1373	-22.4257	-147.021	105.911	-26.3713	-176.511	53.4601	-17.2875	-169.062	73.4469	-22.6352	-162.268	89.8218	-27.7234	-173.003	40.1026	7.54084	-181.027	23.8356	24.4713	-154.035	29.0815	22.8323	
232	1.93333	-136.798	7.4027	15.9321	-120.181	21.1231	0.810333	-111.094	36.804	-13.5254	-108.019	49.1472	-29.2014	-127.478	65.7641	-12.0943	-122.348	83.4878	-20.2045	-120.932	103.282	-28.4423	-143.833	76.3034	-17.8547	-135.679	95.4412	-24.9026	-134.476	115.149	-29.2042	-162.303	73.0659	-20.2195	-153.741	88.4489	-26.1315	-148.091	109.124	-31.1557	-175.702	60.4148	-19.5603	-172.761	77.8565	-27.0116	-163.905	96.3033	-31.6702	-173.005	39.6129	6.81247	-181.569	25.8152	22.7733	-154.059	29.5989	23.0142	
233	1.94167	-138.997	7.97428	16.2742	-118.964	22.0005	2.26522	-108.962	37.0839	-13.884	-108.634	55.6728	-34.0127	-127.764	65.3281	-16.5704	-124.749	86.964	-26.06	-124.523	106.605	-36.4854	-143.651	74.6125	-22.8084	-139.233	93.3633	-31.6291	-135.793	120.555	-38.8968	-160.537	69.4321	-23.2668	-158.455	89.9314	-33.0391	-147.62	111.62	-38.7276	-178.095	61.3093	-23.7326	-172.015	80.3127	-31.9512	-169.988	95.0127	-36.8111	-177.134	46.0201	2.74888	-181.997	30.0974	21.5713	-153.062	37.4624	16.9279	
234	1.95	-136.049	16.4037	14.0298	-116.936	25.2423	0.55715	-109.755	42.8981	-17.552	-111.396	53.167	-35.7672	-128.066	70.7562	-23.5019	-125.402	89.8354	-35.9898	-121.706	107.423	-46.6771	-143.274	80.141	-30.9855	-137.966	98.1447	-42.4434	-135.815	118.311	-49.8658	-161.519	77.1399	-32.5471	-156.911	90.1035	-41.8626	-152.021	110.995	-50.8788	-178.001	62.567	-29.5839	-176.534	79.7073	-38.1733	-171.597	97.1221	-42.7725	-173.419	49.8116	-1.06044	-178.077	35.5199	19.6269	-152.507	41.0061	15.1833	
235	1.95833	-136.282	19.1909	13.6376	-114.391	32.8386	-2.53683	-107.244	45.1039	-21.9709	-111.527	57.0603	-42.5611	-131.379	73.1495	-31.9905	-126.148	87.1762	-44.1239	-121.505	108.305	-60.3205	-146.883	82.1882	-41.9195	-137.788	97.5631	-53.9831	-138.215	116.949	-63.5933	-164.348	77.0794	-41.716	-157.938	91.371	-53.4995	-155.259	106.746	-62.5149	-182.501	65.8204	-37.3589	-176.959	80.1326	-48.6314	-173.761	93.0873	-53.9374	-175.502	51.4371	-6.23401	-182.385	38.7098	15.6142	-148.45	47.854	10.3509	
